<svg xmlns="http://www.w3.org/2000/svg" viewBox="0 0 128 128"><defs><style>.cls-1{fill:#6c5ba7;}.cls-2{fill:#2d1582;}.cls-3{fill:#42c5f4;}.cls-4{fill:#80effe;}.cls-5,.cls-7,.cls-8{fill:none;stroke-miterlimit:10;}.cls-5{stroke:#42c5f4;stroke-width:0.62px;}.cls-6{fill:#fff;}.cls-7,.cls-8{stroke:#2d1582;}.cls-7{stroke-linecap:round;stroke-width:2.68px;}.cls-8{stroke-width:0.59px;}.cls-9{fill:#ffaa83;}.cls-10{fill:#ef3574;}.cls-11{fill:#c48364;}</style></defs><title>1</title><g id="icon"><path class="cls-1" d="M123.2,26.19,118.13,94.4a3.91,3.91,0,0,1-3.9,3.61H4.74a3.91,3.91,0,0,1-3.9-4.21L5.91,25.59A3.91,3.91,0,0,1,9.81,22H119.3A3.91,3.91,0,0,1,123.2,26.19Z"/><path class="cls-2" d="M126.65,26.19,121.59,94.4a3.91,3.91,0,0,1-3.9,3.61h-3.46a3.91,3.91,0,0,0,3.9-3.61l5.07-68.21A3.91,3.91,0,0,0,119.3,22h3.46A3.91,3.91,0,0,1,126.65,26.19Z"/><path class="cls-3" d="M119.74,28.15a2.63,2.63,0,0,0-2.62-2.85H11.82A2.63,2.63,0,0,0,9.2,27.71L4.3,88a2.63,2.63,0,0,0,2.62,2.85H81.6l38-61.13Z"/><path class="cls-4" d="M81.6,90.86h30.61a2.63,2.63,0,0,0,2.62-2.41l4.78-58.72Z"/><polygon class="cls-4" points="76.02 106.69 49.08 106.69 45.61 98 72.54 98 76.02 106.69"/><path class="cls-2" d="M78.29,110.51H54.85c0-3.28,2.41-3.82,2.41-3.82H76L72.54,98h4.09l3.85,9.22A2.37,2.37,0,0,1,78.29,110.51Z"/><path class="cls-1" d="M57.26,106.69s-2.41.54-2.41,3.82H28.3a3.43,3.43,0,0,1,3.39-3.82Z"/><path class="cls-4" d="M84.1,62.17H73.85l3.83-41.24a3.3,3.3,0,0,1,3.3-3.3h0a3.3,3.3,0,0,1,3.3,3.3L81.36,58.28C81.36,60.84,83.1,62.17,84.1,62.17Z"/><path class="cls-5" d="M84.1,62.17H73.85l3.83-41.24a3.3,3.3,0,0,1,3.3-3.3h0a3.3,3.3,0,0,1,3.3,3.3L81.36,58.28C81.36,60.84,83.1,62.17,84.1,62.17Z"/><path class="cls-6" d="M31,17.62a3.3,3.3,0,0,0-3.31,3.3L22.33,85.85H62.25s.05,5,4.79,5h.48A5.05,5.05,0,0,0,72.61,86l5.08-65.11a3.3,3.3,0,0,1,3.3-3.3Z"/><path class="cls-5" d="M31,17.62a3.3,3.3,0,0,0-3.31,3.3L22.33,85.85H62.25s.05,5,4.79,5h.48A5.05,5.05,0,0,0,72.61,86l5.08-65.11a3.3,3.3,0,0,1,3.3-3.3Z"/><path class="cls-6" d="M98,8a3.31,3.31,0,0,0-3.31,3.31l-1.26,14-3,32.17c0,4.76-2.13,4.76-4.76,4.76H84.1c-1,0-2.74-1.33-2.74-3.89L84.3,20.92A3.3,3.3,0,0,0,81,17.62H43.36l.8-6.33A3.31,3.31,0,0,1,47.47,8Z"/><path class="cls-5" d="M98,8a3.31,3.31,0,0,0-3.31,3.31l-1.26,14-3,32.17c0,4.76-2.13,4.76-4.76,4.76H84.1c-1,0-2.74-1.33-2.74-3.89L84.3,20.92A3.3,3.3,0,0,0,81,17.62H43.36l.8-6.33A3.31,3.31,0,0,1,47.47,8Z"/><path class="cls-4" d="M93.47,25.24l1.26-14A3.31,3.31,0,0,1,98,8a3.09,3.09,0,0,1,3,3.31l-1,14Z"/><path class="cls-5" d="M93.47,25.24l1.26-14A3.31,3.31,0,0,1,98,8a3.09,3.09,0,0,1,3,3.31l-1,14Z"/><path class="cls-5" d="M67,90.86H21.54a4.93,4.93,0,0,1-4.93-4.93v-.08H62.25S62.31,90.86,67,90.86Z"/><path class="cls-4" d="M39.08,23.48a5.8,5.8,0,1,1-5.8,5.8,5.8,5.8,0,0,1,5.8-5.8m0-1.47a7.26,7.26,0,1,0,7.26,7.26A7.26,7.26,0,0,0,39.08,22Z"/><path class="cls-4" d="M40.74,44.55,40.19,51h-7l.55-6.45h7m1.6-1.47h-10l-.8,9.38h10l.8-9.38Z"/><path class="cls-4" d="M39.33,58l-.55,6.45h-7L32.3,58h7m1.6-1.47h-10l-.8,9.38h10l.8-9.38Z"/><path class="cls-4" d="M38.08,71.49l-.55,6.45h-7L31,71.49h7M39.68,70h-10l-.8,9.38h10l.8-9.38Z"/><line class="cls-7" x1="52.99" y1="25.66" x2="71.93" y2="25.66"/><line class="cls-7" x1="51.65" y1="32.4" x2="70.59" y2="32.4"/><line class="cls-8" x1="48.81" y1="44.06" x2="69.07" y2="44.06"/><line class="cls-8" x1="48.55" y1="46.47" x2="68.8" y2="46.47"/><line class="cls-8" x1="48.28" y1="48.88" x2="68.53" y2="48.88"/><line class="cls-8" x1="48.01" y1="51.3" x2="68.27" y2="51.3"/><line class="cls-8" x1="47.59" y1="57.19" x2="67.85" y2="57.19"/><line class="cls-8" x1="47.33" y1="59.6" x2="67.58" y2="59.6"/><line class="cls-8" x1="47.06" y1="62.01" x2="67.31" y2="62.01"/><line class="cls-8" x1="46.79" y1="64.43" x2="67.05" y2="64.43"/><line class="cls-8" x1="46.37" y1="70.32" x2="66.63" y2="70.32"/><line class="cls-8" x1="46.11" y1="72.73" x2="66.36" y2="72.73"/><line class="cls-8" x1="45.84" y1="75.14" x2="66.09" y2="75.14"/><line class="cls-8" x1="45.57" y1="77.56" x2="65.83" y2="77.56"/><path class="cls-9" d="M22.79,59.48s-8.37.76-8.88-.61c-.35-1-.12-2.43,1-4.29l4.22,2.54,1.49-1.19Z"/><path class="cls-9" d="M32.84,98.87c-.11,3.1-1.43,10.56-1.76,12.5l-.07.43a6.61,6.61,0,0,1-2.71-.18l.15.07c-2-10.41-.28-17.55-1-20.46-.4-1.68-.71-3.32-.91-4.56a51.34,51.34,0,0,0,6.15.41A8.63,8.63,0,0,1,32.41,89C32.24,89.77,33,95.33,32.84,98.87Z"/><path class="cls-10" d="M35.84,52.41S32,60,32.22,62.94s4.73,7.08.89,24.27h0c-2.16,0-9.22,0-10.46-.25-2.46-.44-4.62-.85-6.17-1h0c.76-15,4.23-18.26,5.25-21.58s-1-7.81-1.12-8.51l-1.49,1.19-4.58-2.39c.48-.82,1.12-1.82,2-3.07a31.22,31.22,0,0,1,5.21-6.19c0,2.13,14.11,1.6,13.64.33a57.92,57.92,0,0,0,9-3.78A24.61,24.61,0,0,0,46,46.9C40.7,49.45,35.84,52.41,35.84,52.41Z"/><path class="cls-11" d="M56.56,24.61s-.81,1.39-.62,1.47.62-.74.93-1.33l-.34-.18Z"/><path class="cls-10" d="M55.28,21.52c-.31.1.86,2.15.87,2.48h0l.41.61.31.13.19-.38-.15-.76C56.86,23.53,55.58,21.42,55.28,21.52Z"/><path class="cls-9" d="M58.76,25.51c-.06-.47,0-.51-.32-.64,0-.64-.42-.58-.42-.58s.23-.53,0-.81-.73,0-1,.08l-.12.05h0l.15.76s-.92,1.8-1.12,1.71.62-1.47.62-1.47L56.15,24a.11.11,0,0,1,0,0c0,.34-.36.77-.49,1.09a4.38,4.38,0,0,1-.44,1.53,10.62,10.62,0,0,0-.53,3.3,113.6,113.6,0,0,1-7.9,10.31A9.39,9.39,0,0,1,44.38,42a20.27,20.27,0,0,0,1.48,4.47c2-1.5,3.76-2.81,4.3-3.25C51.7,42,56.67,31.69,56.67,31.69a29.62,29.62,0,0,0,1.94-3.84A4.17,4.17,0,0,0,58.76,25.51Z"/><path class="cls-9" d="M22.64,87A10.73,10.73,0,0,1,21,90.28c-1.16,1.21-5.79,15.59-6.16,17.56l0,.16c-1.64-1.08-1.84-1.19-3-.37h0l.18-.14c.64-3.58.72-10.92,1.44-13.73a15,15,0,0,1,2.81-5.52A10.09,10.09,0,0,0,16.73,86C18.26,86.16,20.32,86.55,22.64,87Z"/><path class="cls-10" d="M14.4,117.38H11.89a2.24,2.24,0,0,1-1.74-1.81c-.17-1.49.38-2.39.34-3.22,0-.63-.36-2.22.46-2.87a1.56,1.56,0,0,1,1.17-.26,2,2,0,0,1,2,2.26,7.56,7.56,0,0,0,.66,3.61l0,.07C15.28,116,15,117.38,14.4,117.38Z"/><path class="cls-2" d="M15.36,110.31c0,.63-.38,3.45-.57,4.79a7.56,7.56,0,0,1-.66-3.61,2,2,0,0,0-2-2.26,1.56,1.56,0,0,0-1.17.26l.88-1.85h0c1.2-1,1.52-.8,3.21.51A10.52,10.52,0,0,1,15.36,110.31Z"/><path class="cls-2" d="M32.56,114.91l-.1.18a7.46,7.46,0,0,1-3.61.61,2.46,2.46,0,0,1-1.56-.51,15.46,15.46,0,0,1,1-3.57,6.61,6.61,0,0,0,2.71.18l.07-.43c.24.39.76,1.79,1.12,1.93S32.67,114.72,32.56,114.91Z"/><path class="cls-10" d="M32.46,115.09a2.54,2.54,0,0,1-.69.88,6.73,6.73,0,0,1-1.9.53c-.38,0-2.68.19-2.6-1.17,0,0,0-.09,0-.14a2.46,2.46,0,0,0,1.56.51A7.46,7.46,0,0,0,32.46,115.09Z"/><path class="cls-2" d="M35.82,44.13a7,7,0,0,1,.4,5.1c-.92,2.76-7.11,4.88-9.49,5.6l-.9.26h0c-2.5-1.66-7.17-6.29-4.55-11.63,1.31-2.68,3.84-13.64,9.31-13.35,0,0,2.42-1,4.06.28a6.6,6.6,0,0,1,2.2,3.33h0c.08.27.14.54.19.81h0a14.81,14.81,0,0,1-1.35,8.2l0,0C35.45,43.07,35.6,43.52,35.82,44.13Z"/><path class="cls-1" d="M35.82,44.13a7,7,0,0,1,.4,5.1c-.92,2.76-7,6.65-10.42,5.87,3.8-.88,9-5,9.13-7.44.1-2-1.29-3.65-.25-5.44a15.25,15.25,0,0,0,2.14-8.49h0c.08.27.14.54.19.81h0c1.08,5.27-1.07,7.73-1.35,8.2l0,0C35.45,43.07,35.6,43.52,35.82,44.13Z"/><path class="cls-9" d="M99.47,23.51s-1.34-2.57-2-3.65A4,4,0,0,0,96,18.29c-.4-.25-.69-.31-1-.17-.28-.23-.47-.21-.59-.14L94.24,20c0,.15.05.26,0,.29-.3-.48-.61-.52-.84-1-.31-.69-1.15-.69-1.17-.38a9,9,0,0,0,1.05,1.88,7.13,7.13,0,0,1,.89,1.48c.42,1,2.43,1.94,2.43,1.94s2.79,7.06,3.32,11.27c.12.91-2,4.47-2.15,5.49,1.75.88,3.54.47,5.37,1a16,16,0,0,0,1.88-6.9Z"/><path class="cls-9" d="M96,40.63s-1.46,2.06-6.52-.66a15.07,15.07,0,0,1,0-1.55A5,5,0,0,1,87,33.79c0-.25,0-.47,0-.67v-.06a10.79,10.79,0,0,1,.19-1.94s.17,1.73.67,2,.78.55.89,1.5A2.87,2.87,0,0,0,90,37a9.21,9.21,0,0,0,3.23,1.22c.17,0,2.4-.67,2.4-.67v0L96,40.53Z"/><path class="cls-2" d="M97,33.4a21.09,21.09,0,0,1-1,3.3l-.35.92v0s-2.23.67-2.39.67A9.27,9.27,0,0,1,90,37,2.52,2.52,0,0,1,89,35.49h0a7.39,7.39,0,0,1-.14-.91c-.12-1-.39-1.29-.89-1.51s-.67-1.95-.67-1.95A10.55,10.55,0,0,0,87.06,33c0-.5-1.33-3.51.15-5.25a6.25,6.25,0,0,1,4.74-2.44c2.12.06,3.28.49,4.43,2.44S97.33,31.51,97,33.4Z"/><path class="cls-1" d="M101.4,61c.15-5.24-.16-8.58,0-14.1,0-.14,2.88-5.05,2.88-5.2.08-2.61-3.72-3.11-5.43-3.51-.2,0-1.54,1.9-1.73,1.88-.83-.1-1.47,0-1.53.33-.48.31-2.68,1.36-6.77-.83a10.12,10.12,0,0,1-3.06,0c-.58-.15-.85,1.38-1.37,1.1-.29,2.5-1.38,2.73-2.58,5a6.13,6.13,0,0,0,.46.41c1.18,1.89.87,3.91,1.91,7.63,1.28,4.59.65,8.28,1,9.21a16.4,16.4,0,0,1,.08,3.87l.52.08c2.85.43,16.43,2.5,17.68,2.55h0C104.55,69.45,101.37,61.82,101.4,61Z"/><path class="cls-2" d="M112.88,114h0l-4.34.33-.26,0s-1.34-4.91-1.57-5.85-1.73-7.94-1.81-8.73-2.2-5.74-3.54-9.75-4.4-11.79-5.43-11.16S94.72,93,94.8,96s.78,10.06.67,11,.84,4.84.89,7.92c0,.1,0,.21,0,.31-3.41,1.31-4.43,0-4.66-.62a.94.94,0,0,1-.06-.26c0-.36-.71-2.08-1.7-7.11A53.74,53.74,0,0,1,88.9,97.2c-.08-2.13-3-17-3.62-19.74-.51-2.21.16-8.3.44-10.57,2.85.43,16.43,2.5,17.68,2.55.58,1.18,1.3,2.7,1.85,4,1.1,2.59,2.59,15.18,2.59,15.18s1.65,5.5,2,7,2.75,9,3.06,11.79A41.53,41.53,0,0,1,112.88,114Z"/><path class="cls-1" d="M97.18,116.84h0c-.19.42-1.07.77-1.07.77s-3.36,1-3.46,1a5.15,5.15,0,0,1-2.07-.36,1.11,1.11,0,0,1-.35-.68h0a2.17,2.17,0,0,1,0-.68c0-.16.55-1.2.76-1.23a2.29,2.29,0,0,0,.63-.35l.11-.7c.23.64,1.25,1.92,4.66.62,0-.1,0-.21,0-.31a8.11,8.11,0,0,1,.84,1.7A.3.3,0,0,1,97.18,116.84Z"/><path class="cls-4" d="M97.78,117.9l-4,1.32-.58-.28s-1.33.26-1.44.26-.86.08-1.1-.21a2.4,2.4,0,0,1-.45-1.42,1.11,1.11,0,0,0,.35.68,5.15,5.15,0,0,0,2.07.36c.1,0,3.46-1,3.46-1s.87-.35,1.07-.77C97.5,117.33,97.78,117.9,97.78,117.9Z"/><path class="cls-1" d="M114,119.66s-.08-.2-.21-.45a3.54,3.54,0,0,0-.37-.58,5.42,5.42,0,0,1-.65-2c-.21-.89-1.08-1.21-2.47-1.39a2,2,0,0,0-1.92.64l0,0,.13-1.59,4.34-.33c.21.85.43,2,.51,2.21S114,119.66,114,119.66Z"/><path class="cls-4" d="M113.88,121a20.6,20.6,0,0,1-2.54-.4,12,12,0,0,1-2.62-.58c-.28-.26.28-1.08.33-1.57s-.21-.65-.55-1.62a1.9,1.9,0,0,1-.09-1,2,2,0,0,1,1.92-.64c1.39.18,2.26.5,2.47,1.39a5.42,5.42,0,0,0,.65,2,3.54,3.54,0,0,1,.37.58A4.31,4.31,0,0,1,113.88,121Z"/><path class="cls-9" d="M77.67,36.91c-.3-1.09-2-10-.7-11.44s1.55-1.93,1.54-2.47a7.5,7.5,0,0,1,.42-2.2c.15-.22-.39-.49-.86,0s-.29,1.82-.55,1.71.53-2.53.2-2.75a.74.74,0,0,0-.83-.08l-.3.29s-.18-.8-1-.21a.77.77,0,0,0-1,.17c-.26-.28-.55.27-.75.71a6.62,6.62,0,0,0-.19,4c-.65,1.71-1.87,12.69-.52,15.38.56,1.12,2.26,2.2,4.92,3.06.5-1.77,1-3.52,1.66-5.21A14.49,14.49,0,0,0,77.67,36.91Z"/><path class="cls-1" d="M84.09,39.25a26.93,26.93,0,0,1-4.89-2.34c-1.18,1.36-3,3.85-4.09,5.34,3.07,2.4,6.59,4.15,6.88,4.55.5.69,3.18,5.43,3.17,5.53s1.68-12.47,1.68-12.47S84.28,39.27,84.09,39.25Z"/><path class="cls-1" d="M96,36.7l-.35.92v0s-2.23.67-2.39.67A9.27,9.27,0,0,1,90,37,2.52,2.52,0,0,1,89,35.49h0s3.47,2.14,4.24,2.16A10.68,10.68,0,0,0,96,36.7Z"/></g></svg>